<?xml version="1.0" encoding="UTF-8"?>
<svg width="1200pt" height="1200pt" version="1.1" viewBox="0 0 1200 1200" xmlns="http://www.w3.org/2000/svg">
 <path d="m430.8 948c23.641 0 46.441-6.9609 66-19.922l338.16-225.48c33.238-22.078 53.039-59.16 53.039-99v-7.1992c0-39.84-19.801-76.922-53.039-99l-338.16-225.48c-19.559-13.078-42.48-19.922-66-19.922-65.52 0-118.92 53.281-118.92 118.92v458.28c0 31.801 12.359 61.68 34.922 84.121 22.441 22.441 52.32 34.801 84 34.801zm-46.801-577.2c0-25.801 21-46.922 46.922-46.922 9.3594 0 18.359 2.7617 26.039 7.9219l338.16 225.48c13.078 8.7617 20.879 23.398 20.879 39.121v7.1992c0 15.719-7.8008 30.359-20.879 39.121l-338.16 225.48c-7.6797 5.1602-16.68 7.9219-25.922 7.9219-12.602 0-24.359-4.9219-33.121-13.68-8.8789-8.8789-13.801-20.641-13.801-33.121l0.003906-458.4z"/>
</svg>
