<?xml version="1.0" encoding="UTF-8"?>
<svg width="1200pt" height="1200pt" version="1.1" viewBox="0 0 1200 1200" xmlns="http://www.w3.org/2000/svg">
 <path d="m516 660c0 19.883-16.117 36-36 36s-36-16.117-36-36 16.117-36 36-36 36 16.117 36 36"/>
 <path d="m756 660c0 19.883-16.117 36-36 36s-36-16.117-36-36 16.117-36 36-36 36 16.117 36 36"/>
 <path d="m276 840c9.5469 0 18.703-3.793 25.457-10.543 6.75-6.7539 10.543-15.91 10.543-25.457 0-212.4 21-348 62.398-403.2l6-8.0391 9 4.4414c2.8789 1.4414 66.359 33.719 96 89.281v-0.003906c35-19.984 74.602-30.492 114.9-30.492s79.902 10.508 114.9 30.492c29.281-55.559 92.879-87.84 96-89.281l9-4.4414 6 8.0391c40.801 55.203 61.801 190.8 61.801 403.2 0 12.863 6.8633 24.746 18 31.176 11.137 6.4336 24.863 6.4336 36 0 11.137-6.4297 18-18.312 18-31.176 0-305.04-41.039-398.88-76.801-446.52-15.887-21.105-40.781-33.508-67.199-33.48-13.043-0.027344-25.91 3.0156-37.559 8.8789-30.395 15.66-58.199 35.895-82.441 60l-5.0391 5.0391-6.9609-1.918c-54.867-15.934-113.13-15.934-168 0l-6.8398 2.0391-5.1602-5.0391c-24.242-24.105-52.047-44.344-82.441-60-11.641-5.9062-24.504-8.9883-37.559-9-26.441 0-51.336 12.449-67.199 33.602-36 48-76.801 141.48-76.801 446.52 0.03125 9.5273 3.8398 18.652 10.586 25.379 6.75 6.7227 15.887 10.5 25.414 10.5z"/>
 <path d="m600 756c-28.422 0.10938-55.578 11.758-75.238 32.281l-18.719 21.48h-0.003907c-11.426 14.848-26.52 26.469-43.801 33.719-3.5742 1.3633-6.0156 4.6992-6.2383 8.5195-0.007812 3.2383 1.6172 6.2578 4.3203 8.0391 26.586 17.656 60.348 20.508 89.52 7.5625 15.164-6.8789 28.305-17.539 38.16-30.961l12-16.559 12 16.559c9.707 13.504 22.727 24.289 37.801 31.32 29.172 12.945 62.934 10.094 89.52-7.5625 2.9492-1.7578 4.7344-4.9609 4.6797-8.3984-0.097656-3.9844-2.6211-7.5039-6.3594-8.8789-17.523-7.3477-32.797-19.184-44.281-34.32l-18.48-21.121c-19.652-20.246-46.664-31.672-74.879-31.68z"/>
</svg>
