<?xml version="1.0" encoding="UTF-8"?>
<svg width="1200pt" height="1200pt" version="1.1" viewBox="0 0 1200 1200" xmlns="http://www.w3.org/2000/svg">
 <path d="m580.8 210c-4.8008 10.801-4.8008 21.602-1.1992 26.398 10.801 10.801-26.398 75.602-43.199 75.602-22.801-1.1992-68.398-44.398-68.398-64.801 0-25.199-33.602-38.398-50.398-21.602-10.801 10.801-8.3984 19.199 6 36 21.602 22.801 30 146.4 10.801 146.4-4.8008 0-34.801-27.602-66-60-63.602-67.199-84-73.199-109.2-32.398-82.801 124.8-97.199 404.4-30 561.6 61.199 140.4 219.6 223.2 410.4 212.4 117.6-6 188.4-34.801 264-104.4 81.602-75.602 108-147.6 114-308.4 6-147.6-8.3984-231.6-51.602-326.4-37.199-80.398-60-80.398-129.6-2.3984-30 32.398-57.602 60-61.199 60-3.6016 0-7.1992-34.801-7.1992-78 0-44.398 4.8008-78 12-78 7.1992 0 12-10.801 12-25.199 0-18-6-24-26.398-20.398-16.801 2.3984-27.602 10.801-26.398 24 1.1992 10.801-14.398 34.801-33.602 54l-34.801 33.602-24-30c-12-16.801-21.602-43.199-20.398-60 3.6016-34.801-33.602-49.199-45.602-18zm-134.4 250.8c40.801-12 288-14.398 314.4-1.1992 18 8.3984 34.801-1.1992 85.199-51.602 62.398-61.199 63.602-62.398 78-36 33.602 62.398 51.602 154.8 51.602 264 1.1992 198-45.602 296.4-172.8 366-60 33.602-73.199 36-192 36-117.6 0-130.8-2.3984-198-37.199-80.398-42-140.4-111.6-163.2-188.4-22.801-80.398-19.199-290.4 7.1992-368.4 36-106.8 40.801-108 104.4-36 48 52.801 61.199 61.199 85.199 52.801z"/>
 <path d="m374.4 638.4c-43.199 43.199 8.3984 109.2 64.801 82.801 50.398-22.801 31.199-97.199-25.199-97.199-14.398 0-31.199 6-39.602 14.398z"/>
 <path d="m752.4 632.4c-15.602 14.398-8.3984 72 9.6016 87.602 9.6016 8.3984 30 12 46.801 7.1992 61.199-15.602 48-103.2-15.602-103.2-18 0-37.199 3.6016-40.801 8.3984z"/>
 <path d="m546 745.2c-4.8008 6 0 21.602 10.801 33.602 22.801 25.199 24 51.602 4.8008 70.801-21.602 21.602-63.602 16.801-87.602-9.6016-22.801-25.199-42-21.602-42 7.1992 0 52.801 99.602 85.199 150 48 20.398-14.398 26.398-14.398 46.801 0 38.398 26.398 94.801 20.398 127.2-12 15.602-18 24-38.398 20.398-48-10.801-26.398-28.801-24-44.398 4.8008-8.3984 15.602-25.199 24-48 24-45.602 0-62.398-48-30-84 28.801-32.398 13.199-48-48-48-28.801 0-56.398 6-60 13.199z"/>
</svg>
