<?xml version="1.0" encoding="UTF-8"?>
<svg width="1200pt" height="1200pt" version="1.1" viewBox="0 0 1200 1200" xmlns="http://www.w3.org/2000/svg">
 <path d="m349.56 924h92.879c53.762 0 97.559-43.801 97.559-97.559l0.003906-452.88c0-53.762-43.801-97.559-97.559-97.559h-92.879c-53.762 0-97.559 43.801-97.559 97.559v452.88c0 53.762 43.801 97.559 97.559 97.559zm-25.559-550.44c0-14.039 11.52-25.559 25.559-25.559h92.879c14.039 0 25.559 11.52 25.559 25.559v452.88c0 14.039-11.52 25.559-25.559 25.559h-92.879c-14.039 0-25.559-11.52-25.559-25.559z"/>
 <path d="m948 373.56c0-53.762-43.801-97.559-97.559-97.559h-92.879c-53.762 0-97.559 43.801-97.559 97.559v452.88c0 53.762 43.801 97.559 97.559 97.559h92.879c53.762 0 97.559-43.801 97.559-97.559zm-72 452.88c0 14.039-11.52 25.559-25.559 25.559h-92.879c-14.039 0-25.559-11.52-25.559-25.559l-0.003906-452.88c0-14.039 11.52-25.559 25.559-25.559h92.879c14.039 0 25.559 11.52 25.559 25.559v452.88z"/>
</svg>
