<?xml version="1.0" encoding="UTF-8"?>
<!--<svg width="1200pt" height="1200pt" version="1.1" viewBox="0 0 1200 1200" xmlns="http://www.w3.org/2000/svg">-->
<svg version="1.1" viewBox="0 0 1200 1200" xmlns="http://www.w3.org/2000/svg">
 <path d="m819.6 644.52 6 8.0391c12 16.32 49.441 65.879 60 282.6 0.35547 9.0703 3.9766 17.707 10.195 24.32 6.2148 6.6133 14.613 10.762 23.645 11.68 10.207 0.62109 20.199-3.1328 27.48-10.32 7.2852-7.1875 11.168-17.137 10.68-27.359-9.6016-212.52-45.602-285.48-74.402-324.12-15.914-21.062-40.801-33.418-67.199-33.359-13.043-0.023438-25.906 3.0195-37.559 8.8789-30.387 15.668-58.191 35.902-82.441 60l-5.0391 5.0391-6.9609-1.918c-54.867-15.934-113.13-15.934-168 0l-6.8398 2.0391-5.1602-5.2773c-24.25-24.098-52.055-44.332-82.441-60-11.668-5.7969-24.527-8.793-37.559-8.7617-26.441 0-51.336 12.449-67.199 33.602-29.402 38.398-64.801 111.36-74.16 324.36-0.60156 12.859 5.707 25.066 16.543 32.016 10.84 6.9492 24.562 7.5898 36 1.6797 11.441-5.9102 18.855-17.477 19.457-30.336 10.078-218.64 48-268.44 60-284.76l6-8.0391 9 4.4414c2.8789 1.4414 66.359 33.719 96 89.281v-0.003907c34.992-19.992 74.598-30.512 114.9-30.512 40.305 0 79.906 10.52 114.9 30.512 29.398-55.559 92.879-87.84 96-89.281z"/>
 <path d="m408 264c0 28.68-10.32 40.68-27.359 60-19.922 24-44.641 52.441-44.641 108 0 12.863 6.8633 24.746 18 31.176 11.137 6.4336 24.863 6.4336 36 0 11.137-6.4297 18-18.312 18-31.176 0-28.68 10.32-40.68 27.359-60 19.922-24 44.641-52.922 44.641-108 0-12.863-6.8633-24.746-18-31.176-11.137-6.4336-24.863-6.4336-36 0-11.137 6.4297-18 18.312-18 31.176z"/>
 <path d="m624 264c0 28.68-10.32 40.68-27.359 60-19.922 24-44.641 52.441-44.641 108 0 12.863 6.8633 24.746 18 31.176 11.137 6.4336 24.863 6.4336 36 0 11.137-6.4297 18-18.312 18-31.176 0-28.68 10.32-40.68 27.359-60 19.922-24 44.641-52.922 44.641-108 0-12.863-6.8633-24.746-18-31.176-11.137-6.4336-24.863-6.4336-36 0-11.137 6.4297-18 18.312-18 31.176z"/>
 <path d="m804 468c9.5469 0 18.703-3.793 25.457-10.543 6.75-6.7539 10.543-15.91 10.543-25.457 0-28.68 10.32-40.68 27.359-60 19.922-24 44.641-52.922 44.641-108 0-12.863-6.8633-24.746-18-31.176-11.137-6.4336-24.863-6.4336-36 0-11.137 6.4297-18 18.312-18 31.176 0 28.68-10.32 40.68-27.359 60-19.922 24-44.641 52.441-44.641 108 0 9.5469 3.793 18.703 10.543 25.457 6.7539 6.75 15.91 10.543 25.457 10.543z"/>
 <path d="m496.44 895.56-12.84-25.559c-1.832-3.6602-5.5703-5.9688-9.6602-5.9688-4.0938 0-7.832 2.3086-9.6602 5.9688l-12.84 25.559-25.441 12.84c-3.6602 1.832-5.9688 5.5703-5.9688 9.6602 0 4.0938 2.3086 7.832 5.9688 9.6602l25.559 12.84 12.84 25.441c1.832 3.6602 5.5703 5.9688 9.6602 5.9688 4.0938 0 7.832-2.3086 9.6602-5.9688l12.84-25.559 25.441-12.84c3.6602-1.832 5.9688-5.5703 5.9688-9.6602 0-4.0938-2.3086-7.832-5.9688-9.6602z"/>
 <path d="m748.44 895.56-12.84-25.559c-1.832-3.6602-5.5703-5.9688-9.6602-5.9688-4.0938 0-7.832 2.3086-9.6602 5.9688l-12.84 25.559-25.441 12.84c-3.6602 1.832-5.9688 5.5703-5.9688 9.6602 0 4.0938 2.3086 7.832 5.9688 9.6602l25.559 12.84 12.84 25.441c1.832 3.6602 5.5703 5.9688 9.6602 5.9688 4.0938 0 7.832-2.3086 9.6602-5.9688l12.84-25.559 25.441-12.84c3.6602-1.832 5.9688-5.5703 5.9688-9.6602 0-4.0938-2.3086-7.832-5.9688-9.6602z"/>
</svg>
